HIERARCHY
ROOT Hips
{
  OFFSET 0 89.5177 0.535
  CHANNELS 6 Xposition Yposition Zposition Zrotation Xrotation Yrotation
  JOINT Spine
  {
    OFFSET 12.0259 -0.162855 1.69034e-005
    CHANNELS 3 Zrotation Xrotation Yrotation
    JOINT Spine1
    {
      OFFSET 15.3169 -0.0121922 0
      CHANNELS 3 Zrotation Xrotation Yrotation
      JOINT Spine2
      {
        OFFSET 15.3176 -0.0121908 0
        CHANNELS 3 Zrotation Xrotation Yrotation
        JOINT Neck
        {
          OFFSET 19.9142 1.56338 0
          CHANNELS 3 Zrotation Xrotation Yrotation
          JOINT Head
          {
            OFFSET 6.92651 0 0
            CHANNELS 3 Zrotation Xrotation Yrotation
            End Site
            {
              OFFSET 20.7666 0 0
            }
          }
          JOINT LeftShoulder
          {
            OFFSET -6.20654 0.708824 7.28219
            CHANNELS 3 Zrotation Xrotation Yrotation
            JOINT LeftArm
            {
              OFFSET 14.108 0 -1.52588e-005
              CHANNELS 3 Zrotation Xrotation Yrotation
              JOINT LeftForeArm
              {
                OFFSET 28.5802 0 0
                CHANNELS 3 Zrotation Xrotation Yrotation
                JOINT LeftHand
                {
                  OFFSET 27.092 0 0
                  CHANNELS 3 Zrotation Xrotation Yrotation
                  End Site
                  {
                    OFFSET 9.55928 -0.186424 0.145352
                  }
                }
              }
            }
          }
          JOINT RightShoulder
          {
            OFFSET -6.20654 0.708866 -7.28218
            CHANNELS 3 Zrotation Xrotation Yrotation
            JOINT RightArm
            {
              OFFSET 14.108 0 1.52588e-005
              CHANNELS 3 Zrotation Xrotation Yrotation
              JOINT RightForeArm
              {
                OFFSET 28.5802 0 0
                CHANNELS 3 Zrotation Xrotation Yrotation
                JOINT RightHand
                {
                  OFFSET 27.092 0 0
                  CHANNELS 3 Zrotation Xrotation Yrotation
                  End Site
                  {
                    OFFSET 9.55929 -0.186417 -0.145354
                  }
                }
              }
            }
          }
        }
      }
    }
  }
  JOINT LeftUpLeg
  {
    OFFSET 0.005 -0.535 8.837
    CHANNELS 3 Zrotation Xrotation Yrotation
    JOINT LeftLeg
    {
      OFFSET 39.9035 0 0
      CHANNELS 3 Zrotation Xrotation Yrotation
      JOINT LeftFoot
      {
        OFFSET 39.6689 0 0
        CHANNELS 3 Zrotation Xrotation Yrotation
        JOINT LeftToe
        {
          OFFSET 10.1624 13.6296 0
          CHANNELS 3 Zrotation Xrotation Yrotation
          End Site
          {
            OFFSET 8.38147 0 0
          }
        }
      }
    }
  }
  JOINT RightUpLeg
  {
    OFFSET 0.005 -0.535 -8.837
    CHANNELS 3 Zrotation Xrotation Yrotation
    JOINT RightLeg
    {
      OFFSET 39.9035 0 0
      CHANNELS 3 Zrotation Xrotation Yrotation
      JOINT RightFoot
      {
        OFFSET 39.6689 0 0
        CHANNELS 3 Zrotation Xrotation Yrotation
        JOINT RightToe
        {
          OFFSET 10.1624 13.6296 0
          CHANNELS 3 Zrotation Xrotation Yrotation
          End Site
          {
            OFFSET 8.38147 0 0
          }
        }
      }
    }
  }
}
MOTION
Frames:	9
Frame Time:	0.0333333
436.729 87.9507 -16.6306 156.897 -80.245 66.6366 -1.5686 -0.386097 -0.81952 -3.14267 -0.749113 -1.64917 -3.14267 -0.749113 -1.64917 -8.30788e-012 -9.0191e-006 -5.27751e-005 15.0671 11.9252 -5.85541 177.292 -17.3559 -99.0104 -15.7503 -59.0586 2.00508 -4.03377e-006 0 -0 -38.4769 -22.0095 -22.1264 177.905 8.83203 103.402 75.1619 63.5897 -81.6663 -2.80261 -7.95139e-016 -1.98785e-016 -36.2617 13.6723 17.9273 -13.2653 3.46998 -179.361 -22.6116 2.38542e-015 7.95139e-016 20.1484 5.94368 -4.67651 90 2.36057e-016 -5.96354e-016 -10.6583 -4.07 -177.539 -18.5527 0 2.42269e-016 16.7719 -2.04999 0.195532 90 5.15986e-016 -0 
436.738 87.9499 -16.6525 157.008 -80.2506 66.7362 -1.58189 -0.381784 -0.808481 -3.16911 -0.740603 -1.62706 -3.16911 -0.740603 -1.62707 -8.30768e-012 -9.0191e-006 -5.27751e-005 14.9858 11.8337 -5.84656 177.281 -17.3283 -99.0595 -15.627 -59.3523 2.12752 -5.51258e-006 -6.36111e-015 3.97569e-016 -38.4701 -21.8912 -22.0429 177.901 8.84052 103.415 74.9391 63.4989 -81.5747 -2.96931 0 -1.98785e-016 -36.1269 13.5154 17.7417 -13.2356 3.44341 -179.346 -22.5801 -2.38542e-015 -7.95139e-016 20.1275 5.90735 -4.6607 90 -9.75287e-016 -3.97569e-016 -10.6219 -4.03656 -177.515 -18.5063 1.98785e-016 3.23025e-016 16.7633 -2.0403 0.180605 90 -2.56634e-016 -7.95139e-016 
436.743 87.9486 -16.6761 157.195 -80.2696 66.9288 -1.59446 -0.372541 -0.799196 -3.19406 -0.722202 -1.60831 -3.19406 -0.722202 -1.60832 -8.30728e-012 -9.0191e-006 -5.27751e-005 14.9063 11.7978 -5.86491 177.285 -17.2556 -99.0821 -15.4485 -59.8283 2.24991 -0.166395 3.18055e-015 -3.97569e-016 -38.7858 -21.8699 -22.1655 177.886 8.91512 103.397 74.9727 63.4665 -81.8103 -3.23591 -7.95139e-016 -0 -36.0657 13.3783 17.4507 -13.1738 3.41699 -179.361 -22.4972 7.95139e-016 -0 20.0425 5.83206 -4.61212 90 -4.53478e-016 -1.98785e-016 -10.6271 -4.03147 -177.521 -18.5489 -2.48481e-017 4.41054e-016 16.7949 -2.06276 0.229343 90 -2.40328e-016 -3.97569e-016 
436.743 87.9472 -16.7013 157.278 -80.2923 67.0031 -1.60757 -0.366935 -0.791806 -3.22015 -0.711014 -1.59345 -3.22015 -0.711014 -1.59346 -8.30728e-012 -9.0191e-006 -5.27751e-005 14.8286 11.7545 -5.83751 177.254 -17.1984 -99.215 -14.8837 -60.6805 2.79743 -0.606678 1.59028e-014 3.97569e-016 -39.0442 -21.7461 -22.1688 177.884 8.96409 103.338 75.2749 63.4454 -82.2565 -3.59932 0 1.98785e-016 -35.9826 13.3761 17.148 -13.1455 3.45372 -179.34 -22.5172 -1.59028e-015 -0 20.091 5.85789 -4.64348 90 -1.42876e-016 -1.98785e-016 -10.6015 -4.04214 -177.52 -18.5606 0 -2.48481e-016 16.8158 -2.08111 0.270104 90 -4.81432e-017 -3.97569e-016 
436.735 87.9454 -16.7207 157.254 -80.3031 66.9839 -1.62085 -0.360481 -0.786559 -3.24658 -0.698073 -1.58285 -3.24658 -0.698073 -1.58286 -8.30778e-012 -9.0191e-006 -5.27751e-005 14.7642 11.7214 -5.83527 177.22 -17.0406 -99.4071 -13.7283 -61.6934 3.85139 -1.32616 -3.18055e-015 -0 -39.3674 -21.4171 -22.0178 177.877 9.07317 103.23 75.0973 63.456 -82.3007 -3.90632 7.95139e-016 -1.49089e-016 -36.2242 13.5832 17.0757 -13.1271 3.47633 -179.341 -22.5334 2.38542e-015 3.97569e-016 20.1141 5.87702 -4.67978 90 -4.96962e-016 1.98785e-016 -10.563 -4.02877 -177.52 -18.5376 1.2424e-016 4.34842e-017 16.8199 -2.07769 0.249765 90 3.52532e-016 3.97569e-016 
436.728 87.9432 -16.7323 157.165 -80.2836 66.9031 -1.6374 -0.355392 -0.789636 -3.27962 -0.687579 -1.58896 -3.27962 -0.687579 -1.58897 -8.30758e-012 -9.0191e-006 -5.27751e-005 14.6912 11.6966 -5.78493 177.171 -16.9495 -99.6219 -12.1743 -62.9739 5.40473 -2.38601 6.36111e-015 1.98785e-016 -39.6504 -21.0561 -21.7642 177.904 9.14359 102.967 74.6483 63.6074 -81.9799 -4.10674 0 -9.93923e-017 -36.4912 13.6921 17.0126 -13.1143 3.43019 -179.362 -22.501 7.95139e-016 -0 20.1034 5.87239 -4.63777 90 7.70291e-016 3.97569e-016 -10.5285 -4.00634 -177.52 -18.4666 1.73937e-016 -5.65294e-016 16.797 -2.05197 0.160308 90 7.0817e-016 1.19271e-015 
436.707 87.9409 -16.744 156.887 -80.257 66.6567 -1.65609 -0.346552 -0.797538 -3.31693 -0.669415 -1.60461 -3.31693 -0.669415 -1.60462 -8.30768e-012 -9.0191e-006 -5.27751e-005 14.6699 11.6445 -5.7005 177.151 -16.9524 -99.6872 -11.1775 -63.6569 6.57702 -3.34841 3.18055e-015 -8.94531e-016 -39.7076 -20.8675 -21.3557 177.941 9.13689 102.757 74.2871 63.7618 -81.5681 -4.11111 -2.38542e-015 -0 -36.6447 13.7819 17.1012 -13.0722 3.32565 -179.441 -22.4043 -1.59028e-015 -0 20.0047 5.78894 -4.54346 90 -1.32316e-015 -1.98785e-016 -10.5284 -4.04374 -177.566 -18.4762 0 -6.89534e-016 16.8158 -2.04522 0.124873 90 -4.27076e-016 -3.97569e-016 
436.686 87.9388 -16.7536 156.446 -80.2194 66.2349 -1.66981 -0.342795 -0.807071 -3.34436 -0.661431 -1.62364 -3.34436 -0.661431 -1.62365 -8.30748e-012 -9.0191e-006 -5.27751e-005 14.6831 11.5655 -5.4992 177.172 -16.9736 -99.6032 -11.2816 -63.5277 6.67489 -3.75359 0 -3.97569e-016 -39.6116 -20.5323 -20.7597 177.974 9.0966 102.612 73.81 63.7856 -80.9633 -3.99646 7.95139e-016 -0 -36.7351 13.852 17.2886 -13.0842 3.2834 -179.48 -22.4247 2.38542e-015 -3.97569e-016 20.0376 5.82213 -4.55821 90 6.52262e-016 -0 -10.52 -4.11368 -177.604 -18.4806 0 1.36664e-016 16.836 -2.03547 0.106609 90 3.53697e-016 7.95139e-016 
436.677 87.9372 -16.7668 155.882 -80.1965 65.6658 -1.67346 -0.351851 -0.813112 -3.35183 -0.679309 -1.63601 -3.35183 -0.679309 -1.63602 -8.30763e-012 -9.0191e-006 -5.27751e-005 14.6445 11.4707 -5.36159 177.207 -16.9674 -99.4906 -11.9408 -62.9599 6.13753 -3.67629 3.18055e-015 9.93923e-017 -39.4611 -20.2802 -20.661 178.004 8.97894 102.587 72.8296 63.724 -79.8867 -3.4402 1.59028e-015 -1.98785e-016 -36.9965 13.8284 17.6339 -13.1223 3.30715 -179.458 -22.5505 -7.95139e-016 -3.97569e-016 20.1774 5.93576 -4.67726 90 1.32937e-015 3.97569e-016 -10.42 -4.13225 -177.592 -18.3651 -1.05604e-016 4.69008e-016 16.8042 -1.98484 0.00608294 90 5.58305e-016 -7.95139e-016 
